HIERARCHY
ROOT Hip
{
	OFFSET 0 1.131 0.0052
	CHANNELS 6 Xposition Yposition Zposition Xrotation Yrotation Zrotation
	JOINT Abdomen
	{
		OFFSET 0 -0.047353 -0.05
		CHANNELS 3 Xrotation Zrotation Yrotation
		JOINT Chest
		{
			OFFSET 0 0.132153 0.007439
			CHANNELS 3 Xrotation Zrotation Yrotation
			JOINT Neck
			{
				OFFSET 0 0.3078 0.006161
				CHANNELS 3 Xrotation Zrotation Yrotation
				JOINT Head_comp
				{
					OFFSET 0 0.0884 0.013
					CHANNELS 3 Xrotation Yrotation Zrotation
					End Site
					{
						OFFSET -0 0.156 0.0624
					}
				}
			}
			JOINT Left_Collar
			{
				OFFSET 0.02282 0.250342 0.017193
				CHANNELS 2 Yrotation Zrotation
				JOINT Left_Shoulder
				{
					OFFSET 0.15421 0 0
					CHANNELS 3 Xrotation Yrotation Zrotation
					JOINT Left_Forearm
					{
						OFFSET 0.265212 0 0
						CHANNELS 2 Yrotation Xrotation
						JOINT Left_Hand
						{
							OFFSET 0.27571 0 0
							CHANNELS 2 Zrotation Yrotation
							JOINT L1ProxPhalanx
							{
								OFFSET 0.014142 0.001733 0.014142
								CHANNELS 3 Yrotation Zrotation Xrotation
								JOINT L1MidPhalanx
								{
									OFFSET 0.04 0 0
									CHANNELS 1 Zrotation
									JOINT L1DistPhalanx
									{
										OFFSET 0.035 0 0
										CHANNELS 1 Zrotation
										End Site
										{
											OFFSET 0.029 -0 -0
										}
									}
								}
							}
							JOINT L2ProxPhalanx
							{
								OFFSET 0.0821037 0.001578 0.0219996
								CHANNELS 2 Yrotation Zrotation
								JOINT L2MidPhalanx
								{
									OFFSET 0.04 0 0
									CHANNELS 1 Zrotation
									JOINT L2DistPhalanx
									{
										OFFSET 0.028 0 0
										CHANNELS 1 Zrotation
										End Site
										{
											OFFSET 0.02 -0 -0
										}
									}
								}
							}
							JOINT L3ProxPhalanx
							{
								OFFSET 0.083 0 0
								CHANNELS 2 Yrotation Zrotation
								JOINT L3MidPhalanx
								{
									OFFSET 0.053 0 0
									CHANNELS 1 Zrotation
									JOINT L3DistPhalanx
									{
										OFFSET 0.03 0 0
										CHANNELS 1 Zrotation
										End Site
										{
											OFFSET 0.023 -0 -0
										}
									}
								}
							}
							JOINT L4ProxPhalanx
							{
								OFFSET 0.077274 -0.000761 -0.0207055
								CHANNELS 2 Yrotation Zrotation
								JOINT L4MidPhalanx
								{
									OFFSET 0.05 0 0
									CHANNELS 1 Zrotation
									JOINT L4DistPhalanx
									{
										OFFSET 0.03 0 0
										CHANNELS 1 Zrotation
										End Site
										{
											OFFSET 0.023 -0 -0
										}
									}
								}
							}
							JOINT L5ProxPhalanx
							{
								OFFSET 0.0675499 -0.001644 -0.039
								CHANNELS 2 Yrotation Zrotation
								JOINT L5MidPhalanx
								{
									OFFSET 0.04 0 0
									CHANNELS 1 Zrotation
									JOINT L5DistPhalanx
									{
										OFFSET 0.021 0 0
										CHANNELS 1 Zrotation
										End Site
										{
											OFFSET 0.022 -0 -0
										}
									}
								}
							}
						}
					}
				}
			}
			JOINT Right_Collar
			{
				OFFSET -0.02282 0.250342 0.017193
				CHANNELS 2 Yrotation Zrotation
				JOINT Right_Shoulder
				{
					OFFSET -0.15421 0 0
					CHANNELS 3 Xrotation Yrotation Zrotation
					JOINT Right_Forearm
					{
						OFFSET -0.265212 0 0
						CHANNELS 2 Yrotation Xrotation
						JOINT Right_Hand
						{
							OFFSET -0.27571 3e-006 0
							CHANNELS 2 Zrotation Yrotation
							JOINT R1ProxPhalanx
							{
								OFFSET -0.014142 0.001733 0.014142
								CHANNELS 3 Yrotation Zrotation Xrotation
								JOINT R1MidPhalanx
								{
									OFFSET -0.04 0 0
									CHANNELS 1 Zrotation
									JOINT R1DistPhalanx
									{
										OFFSET -0.035 0 0
										CHANNELS 1 Zrotation
										End Site
										{
											OFFSET -0.029 -0 -0
										}
									}
								}
							}
							JOINT R2ProxPhalanx
							{
								OFFSET -0.0821037 0.001578 0.0219996
								CHANNELS 2 Yrotation Zrotation
								JOINT R2MidPhalanx
								{
									OFFSET -0.04 0 0
									CHANNELS 1 Zrotation
									JOINT R2DistPhalanx
									{
										OFFSET -0.028 0 0
										CHANNELS 1 Zrotation
										End Site
										{
											OFFSET -0.02 -0 -0
										}
									}
								}
							}
							JOINT R3ProxPhalanx
							{
								OFFSET -0.083 0 0
								CHANNELS 2 Yrotation Zrotation
								JOINT R3MidPhalanx
								{
									OFFSET -0.053 0 0
									CHANNELS 1 Zrotation
									JOINT R3DistPhalanx
									{
										OFFSET -0.03 0 0
										CHANNELS 1 Zrotation
										End Site
										{
											OFFSET -0.023 -0 -0
										}
									}
								}
							}
							JOINT R4ProxPhalanx
							{
								OFFSET -0.077274 -0.000761 -0.0207055
								CHANNELS 2 Yrotation Zrotation
								JOINT R4MidPhalanx
								{
									OFFSET -0.05 0 0
									CHANNELS 1 Zrotation
									JOINT R4DistPhalanx
									{
										OFFSET -0.03 0 0
										CHANNELS 1 Zrotation
										End Site
										{
											OFFSET -0.023 -0 -0
										}
									}
								}
							}
							JOINT R5ProxPhalanx
							{
								OFFSET -0.0675499 -0.001644 -0.039
								CHANNELS 2 Yrotation Zrotation
								JOINT R5MidPhalanx
								{
									OFFSET -0.04 0 0
									CHANNELS 1 Zrotation
									JOINT R5DistPhalanx
									{
										OFFSET -0.021 0 0
										CHANNELS 1 Zrotation
										End Site
										{
											OFFSET -0.022 -0 -0
										}
									}
								}
							}
						}
					}
				}
			}
		}
	}
	JOINT Left_Thigh
	{
		OFFSET 0.1118 -0.1612 -0.0442
		CHANNELS 3 Xrotation Zrotation Yrotation
		JOINT Left_Shin
		{
			OFFSET 0 -0.477856 0
			CHANNELS 1 Xrotation
			JOINT Left_Foot
			{
				OFFSET 0 -0.431952 0
				CHANNELS 2 Xrotation Zrotation
				JOINT Left_Toe
				{
					OFFSET 0 -0.0442 0.119
					CHANNELS 1 Xrotation
					End Site
					{
						OFFSET -0 -0 0.07
					}
				}
			}
		}
	}
	JOINT Right_Thigh
	{
		OFFSET -0.1118 -0.1612 -0.0442
		CHANNELS 3 Xrotation Zrotation Yrotation
		JOINT Right_Shin
		{
			OFFSET 0 -0.477856 0
			CHANNELS 1 Xrotation
			JOINT Right_Foot
			{
				OFFSET 0 -0.431952 0
				CHANNELS 2 Xrotation Zrotation
				JOINT Right_Toe
				{
					OFFSET 0 -0.0442 0.119
					CHANNELS 1 Xrotation
					End Site
					{
						OFFSET -0 -0 0.07
					}
				}
			}
		}
	}
}
MOTION
Frames: 7
Frame Time: 0.009975
-0.0999843 -0.0601153 0.0482036 8.93208e-013 5.16947e-008 -5.10949e-006 0 0 0 0 0 0 0 0 0 0 0 0 0 0 -0 0 -0 0 0 0 0 -60.4791 -76.0931 83.8143 -4.9393 -2.65108 3.79911 -11.8689 -7.85514 -13.2074 -2.40132 0.745361 -4.00853 -4.7002 -5.03825 2.2119 -8.58663 -2.5421 1.49227 4.9448 -37.6831 22.0138 0 0 -0 0 -0 0 0 0 0 37.9386 28.008 73.698 26.2405 28.4472 13.118 18.2167 29.0248 19.6359 0 22.4358 32.6146 28.1246 -8.63175 30.7051 32.2053 23.7634 -7.83088 26.7354 35.1526 30.0193 0.568258 -0.744118 -0.00738023 0.0240216 -0.592232 0.74416 0 0.579662 -0.744117 -0.00752833 2.83165e-006 -0.579616 0.74416 0 
-0.0999843 -0.0601153 0.0482036 8.93208e-013 5.16947e-008 -5.10949e-006 0 0 0 0 0 0 0 0 0 0 0 0 0 0 -0 0 -0 0 0 0 0 -60.4791 -76.0931 83.8143 -4.9393 -2.65108 3.79911 -11.8689 -7.85514 -13.2074 -2.40132 0.745361 -4.00853 -4.7002 -5.03825 2.2119 -8.58663 -2.5421 1.49227 4.9448 -37.6831 22.0138 0 0 -0 0 -0 0 0 0 0 37.9386 28.008 73.698 26.2405 28.4472 13.118 18.2167 29.0248 19.6359 0 22.4358 32.6146 28.1246 -8.63175 30.7051 32.2053 23.7634 -7.83088 26.7354 35.1526 30.0193 0.568258 -0.744118 -0.00738023 0.0240216 -0.592232 0.74416 0 0.579662 -0.744117 -0.00752833 2.83165e-006 -0.579616 0.74416 0 
-0.101405 -0.0600545 0.0367436 -3.32734e-012 -1.26734e-008 -5.0841e-006 0 -0 0 0 -0 0 0 -0 0 -0.710205 0.291041 -9.06438e-006 -6.46292 -34.1602 -4.81944 -31.9037 -28.1693 -42.995 15.3733 21.7806 -6.74216 -60.4399 -75.8372 83.8126 -5.0896 -2.73782 3.77532 -11.9595 -8.01586 -13.2164 -2.38964 0.581668 -4.18848 -4.7667 -5.00653 2.04105 -8.7437 -2.61939 1.51434 4.80015 -37.6647 21.8037 6.46292 34.1602 -4.81944 31.9037 28.1693 42.995 15.3733 -21.7806 6.74216 60.4399 75.8372 83.8126 5.0896 2.73782 -3.77532 11.9595 8.01586 13.2164 2.38964 -0.581668 4.18848 4.7667 5.00653 -2.04105 8.7437 2.61939 -1.51434 -4.80015 37.6647 -21.8037 -0.153459 -0.654633 0.00175773 0.0239015 0.129547 0.65464 0 -0.14211 -0.654633 0.00162774 0 0.142101 0.65464 0 
-0.10135 -0.0600577 0.0357778 -3.34406e-012 -1.27371e-008 -5.10964e-006 0 -0 0 0 -0 0 0 -0 0 -0.711762 0.290749 -2.327e-010 -6.49442 -34.3316 -3.48913 -31.6291 -24.7183 -44.4323 15.4469 21.8899 -6.77563 -60.4791 -76.0931 83.8143 -4.9393 -2.65108 3.79911 -11.8689 -7.85514 -13.2074 -2.40132 0.745361 -4.00853 -4.7002 -5.03825 2.2119 -8.58663 -2.5421 1.49227 4.9448 -37.6831 22.0138 6.49442 34.3316 -3.48913 31.6291 24.7183 44.4323 15.4469 -21.8899 6.77563 60.4791 76.0931 83.8143 4.9393 2.65108 -3.79911 11.8689 7.85514 13.2074 2.40132 -0.745361 4.00853 4.7002 5.03825 -2.2119 8.58663 2.5421 -1.49227 -4.9448 37.6831 -22.0138 -0.214338 -0.658112 0.0024619 0.0240216 0.190302 0.658121 0 -0.202932 -0.658112 0.0023309 1.69474e-006 0.202917 0.658121 0 
-0.10135 -0.0600578 0.0357555 -1.11284e-012 -1.8138e-008 -5.10963e-006 0 -0 0 0 -0 0 0 -0 0 -0.711734 0.290728 -9.8058e-015 -6.49442 -34.3316 -3.47978 -31.6256 -24.6949 -44.4415 15.4469 21.8899 -6.77563 -60.4791 -76.0931 83.8143 -4.9393 -2.65108 3.79911 -11.8689 -7.85514 -13.2074 -2.40132 0.745361 -4.00853 -4.7002 -5.03825 2.2119 -8.58663 -2.5421 1.49227 4.9448 -37.6831 22.0138 6.49442 34.3316 -3.47978 31.6256 24.6949 44.4415 15.4469 -21.8899 6.77563 60.4791 76.0931 83.8143 4.9393 2.65108 -3.79911 11.8689 7.85514 13.2074 2.40132 -0.745361 4.00853 4.7002 5.03825 -2.2119 8.58663 2.5421 -1.49227 -4.9448 37.6831 -22.0138 -0.215747 -0.658115 0.0024781 0.0240216 0.191711 0.658125 0 -0.204341 -0.658115 0.00234709 1.70755e-008 0.204328 0.658125 0 
-0.10135 -0.0600578 0.0357552 -6.01167e-013 -1.8224e-008 -5.10963e-006 0 -0 0 0 -0 0 0 -0 0 -0.711734 0.290728 -0 -6.49442 -34.3316 -3.47978 -31.6256 -24.6949 -44.4415 15.4469 21.8899 -6.77563 -60.4791 -76.0931 83.8143 -4.9393 -2.65108 3.79911 -11.8689 -7.85514 -13.2074 -2.40132 0.745361 -4.00853 -4.7002 -5.03825 2.2119 -8.58663 -2.5421 1.49227 4.9448 -37.6831 22.0138 6.49442 34.3316 -3.47978 31.6256 24.6949 44.4415 15.4469 -21.8899 6.77563 60.4791 76.0931 83.8143 4.9393 2.65108 -3.79911 11.8689 7.85514 13.2074 2.40132 -0.745361 4.00853 4.7002 5.03825 -2.2119 8.58663 2.5421 -1.49227 -4.9448 37.6831 -22.0138 -0.215764 -0.658115 0.0024783 0.0240216 0.191728 0.658125 0 -0.204358 -0.658115 0.00234729 2.38465e-006 0.204342 0.658125 0 
-0.10135 -0.0600578 0.0357552 -3.36538e-012 -1.82247e-008 -5.10963e-006 0 -0 0 0 -0 0 0 -0 0 -0.711733 0.290728 3.88256e-019 -6.49442 -34.3316 -3.47978 -31.6256 -24.6949 -44.4415 15.4469 21.8899 -6.77563 -60.4791 -76.0931 83.8143 -4.9393 -2.65108 3.79911 -11.8689 -7.85514 -13.2074 -2.40132 0.745361 -4.00853 -4.7002 -5.03825 2.2119 -8.58663 -2.5421 1.49227 4.9448 -37.6831 22.0138 6.49442 34.3316 -3.47978 31.6256 24.6949 44.4415 15.4469 -21.8899 6.77563 60.4791 76.0931 83.8143 4.9393 2.65108 -3.79911 11.8689 7.85514 13.2074 2.40132 -0.745361 4.00853 4.7002 5.03825 -2.2119 8.58663 2.5421 -1.49227 -4.9448 37.6831 -22.0138 -0.215764 -0.658115 0.0024783 0.0240216 0.191728 0.658125 0 -0.204358 -0.658115 0.00234729 2.41484e-006 0.204342 0.658125 0 
